# xmcd CD database file
#
# Track frame offsets:
#	150
#	12580
#	37672
#	58298
#	70125
#	87195
#	104485
#	117388
#	139705
#	157993
#	181460
#
# Disc length: 2690 seconds
#
# Revision: 0
# Processed by: cddbd v1.5.2PL0 Copyright (c) Steve Scherf et al.
# Submitted via: CDex 1.51
#
DISCID=920a800b
DTITLE=Lenny Kuhr - Altijd heimwee
DYEAR=1994
DGENRE=New Age
TTITLE0=Het lange zwijgen
TTITLE1=Altijd heimwee
TTITLE2=De wijze
TTITLE3=De boom
TTITLE4=Over duizenden wegen
TTITLE5=De droom
TTITLE6=God laat ons vrij
TTITLE7=Niemand houdt van mij
TTITLE8=Veronica
TTITLE9=Altijd wil ik bij je zijn
TTITLE10=Terug naar je geboorteland
EXTD=YEAR: 1994
EXTT0=
EXTT1=
EXTT2=
EXTT3=
EXTT4=
EXTT5=
EXTT6=
EXTT7=
EXTT8=
EXTT9=
EXTT10=
PLAYORDER=
